<svg width="79" height="74" viewBox="0 0 79 74" fill="none" xmlns="http://www.w3.org/2000/svg">
<rect width="79" height="74" rx="20" fill="white"/>
<path d="M37.0942 58.5135C35.8255 58.0872 33.0211 57.3714 26.9999 53.5608C19.7602 48.9765 18.1452 42.9606 18.1452 38.8895C18.1452 34.5605 19.3928 26.6472 26.0748 22.984C34.2818 18.4734 34.9823 28.3156 34.9004 32.8078C34.8766 33.9578 35.799 34.85 36.859 34.7079C40.459 34.2157 47.548 32.3999 48.074 25.7051C48.777 16.7944 43.9215 13.4812 35.7515 11.0654C34.7153 8.90217 32.7462 5.42054 30.8986 5.69949C29.1091 5.96265 27.9065 8.50743 27.2695 10.3048C26.7858 10.3575 26.3021 10.4285 25.8237 10.5154C24.1532 8.78638 21.1902 6.11529 19.5276 6.95477C17.4792 7.989 17.4844 12.218 17.5584 13.7575C15.5273 15.0436 13.6963 16.6192 12.1241 18.4339C7.61216 23.6419 2.56104 39.2711 9.48089 51.5002C15.6791 60.8504 25.9505 66.0426 34.6281 67.6005C42.029 68.8058 62.8441 70.2505 67.4432 55.8108C67.43 55.8108 51.2722 63.2767 37.0942 58.5135Z" fill="#040000"/>
<path d="M55.8818 57.3977C54.282 57.3951 52.6886 57.1971 51.1373 56.8082C49.6092 56.423 48.1776 55.7278 46.932 54.7661C45.6463 53.7212 44.6145 52.4006 43.9135 50.9029C43.1205 49.2923 42.7249 47.2703 42.7267 44.837C42.7384 43.7602 42.8098 42.6848 42.9408 41.6159C43.0979 40.3064 43.3685 39.013 43.7496 37.75C44.197 36.395 44.7751 35.0863 45.4756 33.842C46.2383 32.5073 47.2212 31.3098 48.3831 30.2999C49.6575 29.2095 51.1175 28.3549 52.6941 27.7762C54.3822 27.134 56.3954 26.8121 58.7338 26.8104C60.3396 26.7735 61.9411 26.9911 63.4783 27.4551C64.6376 27.8048 65.7046 28.4061 66.6025 29.2157C67.3775 29.9034 67.9726 30.7687 68.3364 31.7368C68.6979 32.7347 68.877 33.7891 68.8651 34.85C68.8651 36.4956 68.5232 37.8912 67.8395 39.0369C67.1963 40.176 66.3136 41.1634 65.2519 41.9317C64.1822 42.6982 62.9999 43.2956 61.747 43.7027C60.4942 44.1232 59.2158 44.4642 57.9197 44.7238C56.7632 44.9287 55.5969 45.0736 54.4254 45.158C53.384 45.1949 52.5752 45.2133 51.999 45.2133C51.9985 45.9016 52.0874 46.5871 52.2633 47.2528C52.4671 47.8732 52.7774 48.4538 53.1805 48.9686C53.6021 49.4916 54.1358 49.9142 54.7426 50.2055C55.4873 50.5475 56.3017 50.7124 57.1214 50.6871C58.0554 50.6871 58.7743 50.5441 59.2783 50.2581C59.7578 49.9838 60.1934 49.6396 60.5708 49.237C60.895 48.844 61.1646 48.5046 61.3796 48.2186C61.4905 48.0657 61.6368 47.9419 61.8062 47.8575C61.9756 47.7732 62.1629 47.731 62.3523 47.7344C62.6618 47.7568 62.9682 47.8106 63.2668 47.8949C63.7648 47.977 64.2417 48.1558 64.6704 48.4212C65.1583 48.7292 65.5797 49.1309 65.91 49.6028C66.2865 50.176 66.4715 50.853 66.4386 51.5371C66.4577 52.5193 66.1123 53.4741 65.4686 54.2187C64.7704 55.0074 63.9045 55.6313 62.9338 56.045C61.8519 56.5332 60.7098 56.8766 59.5373 57.0661C58.3303 57.2786 57.1075 57.3895 55.8818 57.3977ZM63.7188 29.1893C63.1058 29.1749 62.5069 29.373 62.0245 29.7499C61.5561 30.1171 61.1622 30.57 60.8642 31.0841C60.5346 31.5876 60.2949 32.1441 60.1558 32.7289C60.0527 34.1263 60.6025 34.5552 61.9373 34.5289C62.7405 34.4413 63.5236 34.2226 64.2554 33.8815C65.4157 33.3078 65.9312 32.6736 65.9312 31.6104C65.9311 31.0113 65.7239 30.4305 65.3444 29.9657C65.1582 29.7134 64.9125 29.5107 64.629 29.3753C64.3455 29.2399 64.0329 29.176 63.7188 29.1893Z" fill="#040000"/>
<path d="M63.6369 23.805C63.7773 24.2713 63.7512 24.7716 63.5629 25.2209C63.436 25.5919 63.2562 25.9103 62.9391 26.0261C62.7556 26.0685 62.5651 26.0719 62.3802 26.0361C62.1953 26.0003 62.0201 25.926 61.8659 25.8182C61.4361 25.6002 61.1 25.2347 60.9197 24.7893C60.6051 23.9314 60.9593 23.0156 61.7126 22.7445C62.4659 22.4734 63.3223 22.9471 63.6369 23.805Z" fill="#040000"/>
<path d="M71.0668 33.5342C70.5887 33.4365 70.1597 33.1759 69.8536 32.7973C69.7198 32.6826 69.6132 32.5398 69.5414 32.3792C69.4697 32.2186 69.4346 32.0441 69.4386 31.8683C69.488 31.6869 69.5758 31.5181 69.6962 31.3733C69.8165 31.2285 69.9667 31.111 70.1364 31.0288C70.531 30.753 71.0133 30.6303 71.4924 30.6841C72.4016 30.8209 73.0413 31.5657 72.925 32.3526C72.8087 33.1394 71.9761 33.671 71.0668 33.5342Z" fill="#040000"/>
<path d="M68.2657 25.4614C68.6688 24.2977 68.2349 23.093 67.2965 22.7708C66.3581 22.4485 65.2705 23.1307 64.8674 24.2944C64.4642 25.4582 64.8981 26.6628 65.8365 26.9851C66.7749 27.3074 67.8625 26.6252 68.2657 25.4614Z" fill="#040000"/>
<path d="M71.1386 29.2528C72.1666 28.5687 72.5527 27.3481 72.001 26.5264C71.4494 25.7047 70.1689 25.5932 69.141 26.2773C68.113 26.9614 67.7269 28.1821 68.2785 29.0038C68.8302 29.8254 70.1107 29.9369 71.1386 29.2528Z" fill="#040000"/>
<path d="M63.6765 29.0367C63.0422 29.0256 62.4241 29.236 61.9294 29.6315C61.4461 30.0198 61.04 30.4946 60.732 31.0315C60.3918 31.5604 60.145 32.1434 60.0025 32.7552C59.8968 34.2184 60.4624 34.6684 61.8395 34.6421C62.6647 34.5482 63.4686 34.3188 64.2184 33.9631C65.4157 33.3631 65.9497 32.6973 65.9497 31.5946C65.95 30.9679 65.7355 30.3599 65.3417 29.8709C65.1551 29.6056 64.9053 29.3905 64.6147 29.2449C64.3241 29.0993 64.0017 29.0278 63.6765 29.0367Z" fill="#60C5E8"/>
</svg>
